PathFileType	4	(x/y/z)	S05_PSF_T01
DataRate	CameraRate	NumFrames	NumMarkers	Units	OrigDataRate	OrigDataStartFrame	OrigNumFrames
240	240	5	50	mm	240	161	427
Frame#	Time	Sternum			R.Acromium			L.Acromium			Top.Head			R.ASIS			L.ASIS			R.PSIS			L.PSIS			R.Great.Tro			L.Great.Tro			R.Iliac.Crest			L.Iliac.Crest			V.Sacral			R.Thigh.Upper.Post			R.Thigh.Lower.Ant			R.Thigh.Lower.Post			R.Thigh.Upper.Ant			R.Knee.Lat			R.Knee.Med			R.Shank.Upper.Post			R.Shank.Lower.Ant			R.Shank.Lower.Post			R.Shank.Upper.Ant			R.Ankle.Lat			R.Ankle.Med			R.Heel.Upper			R.Heel.Med			R.Heel.Lat			R.Toe.Lat			R.Toe.Med			R.Toe.Tip			L.Thigh.Upper.Post			L.Thigh.Lower.Ant			L.Thigh.Lower.Post			L.Thigh.Upper.Ant			L.Knee.Lat			L.Shank.Upper.Post			L.Shank.Lower.Ant			L.Shank.Lower.Post			L.Shank.Upper.Ant			L.Ankle.Lat			L.Ankle.Med			L.Heel.Upper			L.Heel.Med			L.Heel.Lat			L.Toe.Lat			L.Toe.Med			L.Toe.Tip			Cervical.Spine			Back			
		X1	Y1	Z1	X2	Y2	Z2	X3	Y3	Z3	X4	Y4	Z4	X5	Y5	Z5	X6	Y6	Z6	X7	Y7	Z7	X8	Y8	Z8	X9	Y9	Z9	X10	Y10	Z10	X11	Y11	Z11	X12	Y12	Z12	X13	Y13	Z13	X14	Y14	Z14	X15	Y15	Z15	X16	Y16	Z16	X17	Y17	Z17	X18	Y18	Z18	X19	Y19	Z19	X20	Y20	Z20	X21	Y21	Z21	X22	Y22	Z22	X23	Y23	Z23	X24	Y24	Z24	X25	Y25	Z25	X26	Y26	Z26	X27	Y27	Z27	X28	Y28	Z28	X29	Y29	Z29	X30	Y30	Z30	X31	Y31	Z31	X32	Y32	Z32	X33	Y33	Z33	X34	Y34	Z34	X35	Y35	Z35	X36	Y36	Z36	X37	Y37	Z37	X38	Y38	Z38	X39	Y39	Z39	X40	Y40	Z40	X41	Y41	Z41	X42	Y42	Z42	X43	Y43	Z43	X44	Y44	Z44	X45	Y45	Z45	X46	Y46	Z46	X47	Y47	Z47	X48	Y48	Z48	X49	Y49	Z49	X50	Y50	Z50	

161	0.66667	-683.85	1227.7	301.34	-775.92	1483.9	466.72	-791.63	1510.6	141.17	-776.79	1802	302.13	-738.94	981.27	417.96	NaN	NaN	NaN	-944.74	994.18	346.12	-951.68	1004.6	254.65	-803.94	894.66	485.71	-853.71	914.05	101.19	-828.84	1059	464.86	-840.47	1064.3	129.31	-956.55	962.05	311.93	-686.24	701.24	473.27	-619.94	650.13	414.78	-672.29	614.22	450.79	-638.39	735.33	436.44	-645.78	523.42	429.55	-642.72	509.98	298.82	-654.82	272.98	419.53	-576.67	227.83	424.79	-633.35	199.79	404.76	-597.77	301.86	437.37	-556.79	122.96	408.24	-552.97	145	322.76	-610.18	64.706	344.37	-592	34.835	317.96	-598.81	38.467	382.41	-439.8	58.328	444.98	-401.14	75.34	330.3	-348.04	110.23	378.54	-904.42	687.42	107.85	-842.68	597.2	125.71	-914.77	593.24	123.28	-826.44	685.15	107.78	-937.13	501.35	130.66	-1093	363.88	136.77	-1068.6	278.09	139.94	-1134.9	302.77	158.54	-1034.6	338.55	125.75	-1183.5	167.03	169.11	-1141.5	165.74	254.02	-1256.8	148.1	226.45	-1253.3	121.26	258.99	-1267.8	122.25	199.43	-1110.9	43.144	134.47	-1077	48.395	252.43	-1020.6	43.255	195.38	-831.85	1537.8	309.49	-946.45	1263.4	300.3
162	0.67083	-677.82	1228.5	302.13	-770.26	1484.3	467.71	-785.62	1511.3	142.1	-771.1	1802.6	303.3	-733.02	982.08	418.64	-741.46	985.49	168.52	-938.84	994.75	346.37	-945.09	1004.8	254.87	-798.21	895.52	486.31	-847.07	913.86	101.77	-822.99	1059.7	465.32	-834.08	1064.8	129.81	-950.47	962.5	312.22	-680.84	701.82	473.96	-614.47	650.62	415.63	-666.96	614.78	451.48	-632.8	735.85	437.31	-640.63	523.89	430.44	-637.58	510.49	299.74	-651.55	273.44	420.24	-573.81	227.57	425.35	-630.76	200.1	405.39	-594.2	301.8	438.06	-555.09	122.58	408.65	-551.01	144.73	323.23	-609.32	65.384	344.63	-591.6	35.297	318.08	-598.33	38.825	382.56	-438.88	56.202	445.14	-400	73.025	330.46	-346.32	106.94	378.8	-896.63	686.81	108.22	-834.22	596.96	125.63	-906.25	592.57	123.25	-818.55	685.11	108.08	-928.32	500.94	130.3	-1086.1	365.73	136.96	-1062.8	279.69	139.63	-1128.6	305.25	158.61	-1027.9	339.7	125.42	-1179.2	170.51	169.03	-1136.9	168.22	253.65	-1252.3	153.55	226.64	-1249.4	126.81	259.26	-1264.1	127.91	199.78	-1110.2	44.209	134.5	-1075.9	48.868	252.33	-1020.2	42.879	195.31	-826.1	1538.4	310.49	-940.49	1263.8	300.89
163	0.675	-671.81	1229.3	302.93	-764.59	1484.8	468.69	-779.62	1512	143.02	-765.41	1803.3	304.46	-727.15	982.97	419.36	-735.6	986.14	169.21	-932.99	995.39	346.59	-938.47	1005	255.06	-792.57	896.45	486.91	-840.4	913.69	102.35	-817.21	1060.5	465.78	-827.68	1065.3	130.32	-944.42	963	312.47	-675.51	702.47	474.7	-609.03	651.16	416.56	-661.69	615.39	452.22	-627.27	736.42	438.25	-635.58	524.37	431.38	-632.5	511.04	300.71	-648.4	273.92	421.04	-571.06	227.35	425.97	-628.29	200.45	406.09	-590.75	301.76	438.8	-553.5	122.22	409.1	-549.18	144.54	323.75	-608.52	66.03	344.9	-591.22	35.77	318.22	-597.89	39.161	382.73	-438.05	54.197	445.31	-398.98	70.911	330.63	-344.76	103.87	379.08	-888.68	686.18	108.54	-825.56	596.74	125.51	-897.54	591.87	123.19	-810.5	685.1	108.36	-919.26	500.51	129.9	-1079	367.61	137.16	-1056.7	281.34	139.31	-1122.1	307.79	158.67	-1020.9	340.89	125.07	-1174.7	174.12	168.97	-1132	170.8	253.29	-1247.4	159.2	226.86	-1245.2	132.58	259.56	-1260.1	133.83	200.15	-1109.5	45.44	134.55	-1074.8	49.436	252.24	-1019.8	42.496	195.24	-820.35	1538.9	311.48	-934.54	1264.3	301.47
164	0.67917	-665.82	1230.2	303.73	-758.92	1485.3	469.66	-773.63	1512.9	143.94	-759.73	1803.9	305.61	-721.34	983.91	420.1	-729.56	986.79	169.93	-927.19	996.07	346.77	-931.85	1005.3	255.23	-787.01	897.45	487.52	-833.7	913.53	102.93	-811.52	1061.4	466.24	-821.28	1065.8	130.82	-938.4	963.56	312.7	-670.26	703.16	475.49	-603.65	651.75	417.55	-656.49	616.06	453	-621.79	737.03	439.26	-630.64	524.87	432.37	-627.5	511.61	301.73	-645.37	274.42	421.9	-568.44	227.16	426.64	-625.94	200.83	406.85	-587.43	301.75	439.59	-552.04	121.88	409.58	-547.47	144.4	324.3	-607.78	66.638	345.2	-590.86	36.246	318.37	-597.48	39.473	382.91	-437.31	52.314	445.47	-398.06	68.989	330.81	-343.35	101.02	379.39	-880.57	685.53	108.83	-816.7	596.53	125.35	-888.65	591.14	123.09	-802.3	685.1	108.61	-909.95	500.06	129.45	-1071.5	369.52	137.34	-1050.3	283.04	138.98	-1115.2	310.38	158.73	-1013.6	342.11	124.71	-1169.9	177.84	168.94	-1126.9	173.48	252.94	-1242.1	165.03	227.1	-1240.6	138.57	259.9	-1255.8	139.98	200.54	-1108.6	46.85	134.61	-1073.5	50.114	252.13	-1019.4	42.108	195.15	-814.61	1539.6	312.46	-928.6	1264.9	302.04
165	0.68333	-659.86	1231.2	304.53	-753.24	1486	470.6	-767.66	1513.8	144.85	-754.05	1804.6	306.76	-715.57	984.9	420.86	-723.39	987.44	170.68	-921.42	996.79	346.92	-925.23	1005.6	255.39	-781.53	898.5	488.14	-826.99	913.38	103.52	-805.9	1062.3	466.7	-814.88	1066.4	131.31	-932.43	964.15	312.9	-665.08	703.89	476.31	-598.33	652.37	418.62	-651.38	616.75	453.83	-616.36	737.67	440.33	-625.8	525.38	433.39	-622.58	512.2	302.78	-642.45	274.94	422.81	-565.93	227	427.34	-623.7	201.23	407.65	-584.22	301.75	440.41	-550.68	121.57	410.08	-545.88	144.32	324.88	-607.09	67.206	345.5	-590.54	36.717	318.53	-597.11	39.759	383.09	-436.65	50.555	445.63	-397.24	67.247	330.99	-342.08	98.378	379.7	-872.32	684.85	109.08	-807.66	596.34	125.14	-879.57	590.39	122.94	-793.97	685.13	108.83	-900.39	499.6	128.97	-1063.8	371.47	137.51	-1043.6	284.79	138.64	-1108	313.03	158.77	-1006	343.36	124.33	-1164.8	181.67	168.92	-1121.4	176.25	252.61	-1236.5	171.04	227.35	-1235.7	144.77	260.27	-1251	146.36	200.95	-1107.6	48.452	134.69	-1072.1	50.921	252.02	-1018.8	41.724	195.04	-808.88	1540.2	313.44	-922.68	1265.5	302.59
